<?xml version="1.0" standalone="no"?>
<!DOCTYPE svg PUBLIC "-//W3C//DTD SVG 20010904//EN"
 "http://www.w3.org/TR/2001/REC-SVG-20010904/DTD/svg10.dtd">
<svg version="1.0" xmlns="http://www.w3.org/2000/svg"
 width="300.000000pt" height="401.000000pt" viewBox="0 0 300.000000 401.000000"
 preserveAspectRatio="xMidYMid meet">
<metadata>
Created by potrace 1.10, written by Peter Selinger 2001-2011
</metadata>
<g transform="translate(0.000000,401.000000) scale(0.100000,-0.100000)"
fill="#000000" stroke="none">
<path d="M1211 3494 c-19 -14 -22 -23 -18 -55 4 -33 2 -38 -16 -41 -12 -2 -28
-15 -36 -29 -13 -24 -13 -29 2 -53 11 -16 27 -26 42 -26 21 0 25 -5 25 -32 0
-49 19 -107 38 -118 44 -25 45 -26 28 -52 -14 -22 -15 -29 -1 -74 19 -64 19
-64 -10 -64 -18 0 -25 5 -25 18 0 11 -9 27 -20 37 -17 16 -31 17 -112 11 -109
-8 -135 -19 -159 -66 -50 -93 -3 -150 123 -150 63 0 96 -14 104 -44 8 -33 -8
-58 -51 -82 l-37 -19 -20 25 c-52 65 -88 100 -103 100 -21 0 -65 -44 -65 -66
0 -23 66 -80 128 -111 52 -25 53 -25 97 -9 50 20 100 71 109 113 9 40 -14 102
-46 126 -20 15 -48 21 -108 25 -44 2 -83 8 -85 13 -10 15 18 59 37 59 11 0 51
-7 89 -16 72 -16 98 -12 66 10 -16 13 -98 28 -145 28 l-23 0 22 19 c29 25 136
24 168 -2 18 -15 20 -22 12 -38 -17 -30 -13 -50 12 -75 29 -29 71 -25 93 10
21 31 76 49 105 34 18 -10 26 -9 48 7 14 11 27 30 29 42 5 30 -25 61 -57 61
-30 0 -78 -47 -73 -72 2 -9 -2 -19 -9 -24 -12 -7 -12 -7 7 130 5 33 12 47 30
55 30 13 33 60 5 85 -16 14 -24 15 -63 5 -25 -7 -52 -10 -60 -7 -26 10 -32
168 -7 168 5 0 7 -10 4 -23 -8 -30 16 -51 49 -43 27 7 39 30 30 58 -7 25 -44
39 -67 26 -27 -14 -29 -6 -12 35 20 48 19 63 -5 87 -24 24 -38 25 -69 4z m46
-98 c4 -41 -8 -46 -29 -13 -11 16 -13 28 -5 45 13 29 28 15 34 -32z m-48 -63
c1 -27 -11 -30 -29 -8 -11 13 -11 21 0 43 12 25 13 26 21 7 4 -11 8 -30 8 -42z
m176 -203 c0 -17 -5 -24 -15 -21 -8 2 -28 6 -43 9 l-28 4 28 19 c37 24 58 20
58 -11z m-31 -36 c9 -3 13 -11 9 -18 -11 -17 -15 -37 -16 -83 0 -24 -4 -44 -9
-44 -28 -6 -31 0 -35 61 -5 89 3 102 51 84z m107 -142 c-6 -2 -9 -7 -6 -12 7
-11 -32 -23 -46 -15 -7 5 -3 16 12 31 18 19 25 21 37 12 9 -8 10 -14 3 -16z
m-167 -36 c16 -59 1 -70 -43 -33 -20 17 -25 27 -18 37 14 24 54 21 61 -4z
m-302 -193 c10 -9 18 -24 18 -35 0 -10 5 -19 10 -19 33 -4 60 -20 60 -35 0
-11 -7 -13 -27 -8 -33 8 -38 12 -38 27 0 7 -9 13 -20 15 -11 2 -30 14 -43 25
-22 20 -22 22 -6 34 23 16 24 16 46 -4z"/>
<path d="M1050 3452 c-124 -53 -320 -165 -320 -183 0 -5 2 -9 5 -9 14 0 86 42
143 84 45 33 92 56 170 82 59 19 111 39 117 45 19 19 -52 8 -115 -19z"/>
<path d="M1422 3448 c-7 -7 -12 -21 -12 -32 -1 -12 -7 -32 -15 -46 -20 -35
-18 -50 5 -50 11 0 20 7 20 16 0 8 16 30 36 48 32 29 35 36 25 55 -13 23 -40
28 -59 9z"/>
<path d="M1543 3425 c-59 -39 -73 -59 -73 -108 0 -48 25 -67 88 -67 39 0 57
-5 73 -21 27 -27 20 -42 -26 -54 -34 -8 -40 -7 -53 13 -26 40 -82 23 -82 -25
0 -26 51 -63 86 -63 28 0 125 51 138 72 7 12 6 27 -6 52 -24 49 -59 70 -119
68 -49 -1 -50 0 -47 26 3 27 23 37 110 56 32 7 48 47 28 71 -20 24 -61 17
-117 -20z"/>
<path d="M598 3423 c-29 -33 -30 -58 -2 -98 32 -48 51 -146 35 -181 -17 -37
-13 -72 9 -94 27 -27 64 -25 103 4 40 30 106 40 158 25 29 -9 45 -9 63 -1 17
8 35 8 61 1 80 -22 145 11 131 66 -8 31 -40 40 -86 25 -32 -11 -42 -10 -78 9
-23 12 -48 21 -56 21 -10 0 -14 8 -11 28 2 15 4 33 4 40 1 14 22 12 33 -3 9
-13 97 -8 115 6 16 14 28 6 20 -14 -3 -8 -18 -17 -34 -20 -16 -3 -40 -15 -54
-27 l-24 -21 40 6 c61 10 110 36 113 63 4 28 -38 86 -78 107 -45 23 -102 19
-128 -8 -32 -34 -44 -84 -31 -124 6 -18 7 -38 3 -44 -23 -38 -165 -54 -183
-21 -22 42 -30 126 -14 171 14 41 13 46 -5 70 -24 33 -80 41 -104 14z m72 -38
c10 -12 10 -21 0 -45 -7 -16 -17 -30 -22 -30 -12 0 -37 61 -31 77 7 18 38 16
53 -2z m377 -80 l28 -24 -31 -1 c-17 0 -45 3 -62 6 -27 6 -30 9 -21 25 14 26
53 24 86 -6z m-77 -198 c0 -5 -14 -6 -32 -2 -18 4 -39 7 -45 8 -18 1 -16 14 5
42 l17 25 28 -32 c15 -18 27 -36 27 -41z m-230 23 c6 0 8 -4 5 -10 -3 -5 -1
-10 6 -10 7 0 0 -11 -16 -24 -29 -25 -39 -27 -69 -9 -18 10 -19 15 -7 52 l12
42 29 -21 c15 -11 33 -20 40 -20z m332 12 c3 8 10 7 27 -1 34 -19 12 -35 -49
-36 -48 -1 -50 0 -50 26 0 28 0 28 34 14 25 -10 36 -11 38 -3z"/>
<path d="M1632 3331 c-9 -5 5 -11 40 -15 69 -9 108 -44 108 -95 0 -47 -19
-107 -48 -154 -13 -20 -22 -42 -20 -49 3 -7 11 2 19 20 7 18 17 32 20 32 16 0
59 110 59 150 0 36 -6 48 -39 81 -33 34 -45 39 -82 39 -24 0 -50 -4 -57 -9z"/>
<path d="M1429 3220 c-13 -10 -20 -19 -16 -20 11 0 67 29 67 35 0 12 -30 3
-51 -15z"/>
<path d="M572 3174 c-62 -49 -79 -121 -43 -180 24 -40 83 -68 125 -60 31 6
185 104 186 119 0 14 -19 7 -71 -29 -68 -46 -121 -65 -159 -57 -35 7 -48 20
-65 69 -14 43 0 84 42 120 38 32 24 48 -15 18z"/>
<path d="M2266 3148 c-7 -13 -19 -44 -25 -71 -12 -49 -85 -202 -101 -212 -6
-3 -10 3 -10 14 0 12 -4 21 -10 21 -5 0 -10 7 -10 15 0 9 -6 12 -15 9 -9 -4
-15 0 -15 10 0 9 8 16 20 16 11 0 20 -4 20 -10 0 -12 37 -7 51 7 7 7 -10 17
-60 32 -39 12 -83 24 -98 27 -56 11 -113 -64 -113 -147 0 -40 5 -48 60 -100
41 -38 58 -61 54 -72 -14 -38 38 -83 79 -68 20 8 29 25 47 83 28 93 109 240
177 323 58 71 69 116 34 135 -33 17 -69 12 -85 -12z m61 -34 c4 -10 -6 -27
-26 -47 l-32 -32 7 30 c14 61 38 83 51 49z m-249 -216 c56 -42 60 -52 36 -86
-18 -26 -51 -24 -116 9 -47 24 -50 30 -36 70 23 69 32 69 116 7z m-31 -120
c18 1 33 -2 33 -7 0 -10 -49 -56 -53 -50 -32 40 -47 76 -25 63 6 -4 26 -7 45
-6z m58 -108 c-22 -25 -37 -25 -58 -2 -16 17 -15 18 17 14 19 -2 37 1 41 8 4
6 10 9 13 6 3 -3 -3 -15 -13 -26z"/>
<path d="M1788 3069 c-24 -13 -23 -52 2 -117 11 -29 20 -68 20 -87 0 -33 -2
-35 -35 -35 -55 0 -75 27 -75 103 0 49 -4 68 -18 80 -38 35 -102 9 -102 -40 0
-21 59 -135 86 -164 17 -19 79 -39 122 -39 18 0 41 9 56 23 22 20 25 32 31
138 6 100 5 118 -10 132 -18 19 -51 21 -77 6z m62 -38 c0 -6 -4 -12 -9 -15 -4
-3 -6 -17 -3 -31 2 -15 0 -25 -7 -25 -7 0 -10 4 -6 10 3 5 -4 19 -15 30 -11
11 -18 25 -15 30 8 13 55 13 55 1z m-185 -78 c4 -21 9 -46 12 -56 9 -34 -36 0
-52 39 -17 40 -13 54 15 54 14 0 21 -10 25 -37z"/>
<path d="M1950 3057 c-43 -13 -43 -13 -36 -25 3 -6 23 -4 48 5 54 18 100 11
143 -22 42 -32 50 -32 29 1 -34 50 -103 66 -184 41z"/>
<path d="M895 3026 c-38 -57 -95 -219 -95 -267 0 -77 48 -130 117 -128 26 1
25 2 -15 20 -23 11 -48 30 -56 42 -24 37 -22 112 4 172 39 89 73 185 65 185
-3 0 -12 -11 -20 -24z"/>
<path d="M2405 2951 c-33 -10 -71 -23 -85 -30 -21 -10 -17 -11 29 -6 29 3 80
13 112 21 47 12 67 13 94 4 81 -27 96 -142 23 -185 -18 -10 -27 -20 -20 -23
19 -6 60 25 78 60 25 49 13 106 -30 145 -31 29 -42 33 -88 32 -29 0 -80 -8
-113 -18z"/>
<path d="M2280 2882 c-45 -14 -52 -68 -14 -109 21 -23 24 -33 18 -68 -8 -53
-7 -51 -67 -71 -63 -20 -87 -40 -87 -70 0 -30 46 -66 74 -58 12 4 38 26 59 50
47 53 197 164 272 201 56 27 71 49 63 90 -4 22 -52 46 -77 38 -10 -3 -32 -27
-49 -53 -17 -26 -46 -62 -66 -81 -30 -29 -38 -32 -51 -21 -17 14 -20 56 -5 65
6 3 10 16 10 29 0 35 -47 69 -80 58z m267 -29 c-4 -3 0 -11 9 -17 14 -10 13
-13 -3 -28 -10 -9 -31 -20 -48 -24 l-29 -7 19 29 c10 16 26 34 34 41 17 13 29
17 18 6z m-227 -32 c0 -25 -20 -38 -31 -20 -15 23 -10 39 11 39 13 0 20 -7 20
-19z m11 -121 c-30 -26 -49 -26 -26 0 10 11 25 20 34 20 12 -1 10 -5 -8 -20z
m-26 -71 c-4 -5 -10 -9 -14 -9 -5 0 -25 -16 -46 -36 -24 -22 -45 -34 -59 -32
-39 6 -22 30 44 62 62 30 87 35 75 15z"/>
<path d="M1332 2852 c-19 -20 -23 -33 -18 -61 9 -59 34 -71 142 -71 81 0 97 3
114 20 32 32 24 75 -17 91 -19 7 -35 2 -78 -22 -74 -42 -97 -37 -110 23 l-10
47 -23 -27z m218 -77 c0 -16 -22 -25 -61 -25 -32 0 -37 11 -14 30 8 7 15 9 15
4 0 -4 5 -3 11 3 14 14 49 5 49 -12z"/>
<path d="M1688 2697 c-16 -6 -28 -17 -28 -23 0 -10 7 -10 32 0 18 8 34 19 36
25 4 13 -4 13 -40 -2z"/>
<path d="M1415 2628 c-27 -5 -92 -29 -143 -54 -225 -109 -338 -322 -291 -546
13 -59 48 -135 87 -185 l24 -33 -93 0 c-52 0 -112 -5 -133 -11 -33 -9 -41 -8
-48 5 -10 18 -34 21 -43 6 -4 -6 1 -66 10 -134 l18 -124 -42 -37 c-73 -66 -79
-164 -14 -236 20 -22 46 -42 59 -45 26 -7 29 -24 39 -229 4 -66 10 -123 14
-127 4 -4 39 -1 79 7 125 26 298 -9 429 -87 71 -42 154 -122 181 -173 l20 -40
8 30 c11 49 33 85 82 137 98 105 255 170 413 172 79 1 99 -2 113 -17 14 -13
21 -15 32 -6 11 9 12 41 8 157 -3 81 -6 161 -9 178 -3 30 -1 32 37 38 53 9
102 57 118 116 28 105 -33 214 -126 224 l-27 3 3 129 c1 71 3 143 4 159 l1 30
-73 0 c-44 0 -70 4 -68 10 28 62 38 127 34 209 -4 78 -10 103 -41 170 -106
228 -385 356 -662 304z m325 -64 c137 -43 245 -136 308 -263 36 -73 37 -78 36
-180 -1 -126 -18 -184 -55 -189 -58 -8 -189 -55 -249 -89 -36 -21 -102 -75
-147 -120 -82 -82 -83 -83 -134 -83 -43 0 -57 5 -92 34 -52 42 -144 89 -220
113 -49 15 -64 25 -93 64 -43 60 -71 125 -85 204 -45 244 159 491 445 536 77
12 201 0 286 -27z m389 -663 c11 -6 32 -11 48 -11 20 0 24 -3 14 -9 -11 -7
-13 -36 -9 -143 l4 -135 -26 -15 c-34 -20 -70 -93 -70 -144 1 -52 30 -115 70
-146 l33 -25 -8 -157 -7 -156 -27 8 c-40 11 -160 7 -221 -8 -75 -17 -171 -62
-232 -106 -46 -34 -120 -116 -131 -146 -3 -8 -18 3 -42 30 -86 99 -236 178
-385 202 -68 11 -173 9 -226 -6 -20 -5 -22 0 -33 103 -7 59 -15 127 -18 149
-5 40 -4 42 25 48 30 7 71 44 91 83 6 12 11 46 11 75 0 84 -62 158 -133 158
-24 0 -25 3 -29 93 -3 50 -4 93 -3 95 1 1 39 8 84 14 71 11 97 10 188 -6 210
-35 359 -141 410 -293 l16 -46 17 66 c19 78 71 158 143 223 55 49 162 116 215
135 26 9 32 16 29 30 -3 12 0 19 9 19 7 0 11 -6 8 -14 -4 -11 0 -13 15 -9 17
4 19 8 10 19 -9 11 -8 14 5 14 9 0 16 -4 16 -10 0 -5 12 -10 26 -10 21 0 25 4
21 20 -6 24 -3 25 18 4 11 -11 23 -14 43 -8 23 6 24 8 7 12 -11 2 -24 8 -29
13 -12 11 26 4 53 -10z m-594 -298 c-4 -10 -10 -26 -12 -35 -7 -25 -15 -22
-40 17 l-22 35 41 0 c34 0 39 -3 33 -17z m751 -58 c28 -19 54 -75 54 -114 0
-94 -92 -161 -158 -115 -93 65 -54 244 53 244 17 0 40 -7 51 -15z m-1377 -70
c40 -34 55 -82 42 -133 -27 -98 -138 -116 -191 -30 -35 58 -19 136 34 169 42
26 79 24 115 -6z"/>
<path d="M1739 2388 c-28 -53 -3 -178 36 -178 39 0 61 133 29 178 -19 28 -50
28 -65 0z m51 -90 c0 -44 -9 -70 -21 -62 -10 6 -12 107 -2 117 11 12 23 -16
23 -55z"/>
<path d="M1291 2374 c-43 -54 -15 -174 39 -174 61 0 78 159 20 190 -28 15 -37
13 -59 -16z m53 -40 c11 -29 6 -91 -8 -103 -29 -24 -49 56 -26 100 13 23 26
24 34 3z"/>
<path d="M1815 2164 c-82 -18 -418 -62 -540 -72 -91 -6 -100 -9 -100 -27 0
-16 7 -20 35 -20 22 -1 60 -14 95 -34 72 -41 253 -160 261 -172 2 -4 -1 -18
-8 -29 -11 -17 -11 -22 2 -30 11 -7 20 -4 35 14 11 13 48 57 82 97 34 41 101
114 149 163 69 70 85 92 77 104 -13 21 -18 21 -88 6z m15 -61 c-18 -21 -75
-84 -127 -141 l-95 -103 -57 32 c-75 42 -129 75 -202 126 -56 38 -59 42 -38
48 13 3 141 21 284 39 143 19 262 34 264 35 1 0 -12 -16 -29 -36z"/>
<path d="M2070 1836 c8 -8 31 -17 50 -20 l35 -6 -40 19 c-48 23 -64 26 -45 7z"/>
<path d="M2068 2566 c-47 -17 -88 -43 -88 -56 0 -6 2 -10 5 -10 14 0 103 50
114 64 16 19 16 19 -31 2z"/>
<path d="M743 1930 c0 -41 2 -58 4 -37 2 20 2 54 0 75 -2 20 -4 3 -4 -38z"/>
</g>
</svg>
